<svg width="33" height="32" viewBox="0 0 33 32" fill="none" xmlns="http://www.w3.org/2000/svg">
<g clip-path="url(#clip0_1135_4908)">
<path d="M32.8501 19.0551H31.3201V25.1451H32.8501V19.0551Z" fill="#000001"/>
<path d="M32.85 11.4351H29.8V12.9551H32.85V11.4351Z" fill="#000001"/>
<path d="M31.32 25.145H29.8V26.675H31.32V25.145Z" fill="#000001"/>
<path d="M31.32 17.525H29.8V19.055H31.32V17.525Z" fill="#000001"/>
<path d="M31.32 3.81506H29.8V5.33506H31.32V3.81506Z" fill="#000001"/>
<path d="M29.8002 26.675H28.2802V28.195H29.8002V26.675Z" fill="#000001"/>
<path d="M29.8002 16.005H28.2802V17.525H29.8002V16.005Z" fill="#000001"/>
<path d="M29.8002 5.33508H28.2802V6.86508H29.8002V5.33508Z" fill="#000001"/>
<path d="M28.2801 28.1951H3.90015V29.7151H28.2801V28.1951Z" fill="#000001"/>
<path d="M23.7002 16.005H22.1802V17.525H23.7002V16.005Z" fill="#000001"/>
<path d="M23.7002 2.28503H22.1802V5.33503H23.7002V2.28503Z" fill="#000001"/>
<path d="M22.1802 17.525H20.6602V19.055H22.1802V17.525Z" fill="#000001"/>
<path d="M17.6101 5.33508H16.0901V6.86508H17.6101V5.33508Z" fill="#000001"/>
<path d="M16.0901 3.81506H14.5601V5.33506H16.0901V3.81506Z" fill="#000001"/>
<path d="M14.56 9.90499H19.13V11.435H22.18V12.955H23.7V16.005H28.28V9.90499H26.75V8.38499H25.23V6.86499H20.66V8.38499H13.04V9.90499H11.51V11.435H14.56V9.90499Z" fill="#000001"/>
<path d="M13.04 19.0551H11.51V20.5751H13.04V19.0551Z" fill="#000001"/>
<path d="M11.51 17.525H9.98999V19.055H11.51V17.525Z" fill="#000001"/>
<path d="M11.51 11.4351H9.98999V12.9551H11.51V11.4351Z" fill="#000001"/>
<path d="M9.99015 17.5251V12.9551H8.47015V16.0051H3.90015V17.5251H9.99015Z" fill="#000001"/>
<path d="M3.90012 26.675H2.37012V28.195H3.90012V26.675Z" fill="#000001"/>
<path d="M3.90012 17.525H2.37012V19.055H3.90012V17.525Z" fill="#000001"/>
<path d="M2.3701 19.0551H0.850098V26.6751H2.3701V19.0551Z" fill="#000001"/>
</g>
<defs>
<clipPath id="clip0_1135_4908">
<rect width="32" height="32" fill="white" transform="translate(0.850098)"/>
</clipPath>
</defs>
</svg>
