<svg width="33" height="32" viewBox="0 0 33 32" fill="none" xmlns="http://www.w3.org/2000/svg">
<path d="M29.0401 27.4301H27.5201V32.0001H29.0401V27.4301Z" fill="#000001"/>
<path d="M27.5201 25.91H25.9901V27.43H27.5201V25.91Z" fill="#000001"/>
<path d="M25.9902 27.4301H24.4702V28.9501H25.9902V27.4301Z" fill="#000001"/>
<path d="M25.9902 24.38H24.4702V25.91H25.9902V24.38Z" fill="#000001"/>
<path d="M24.4702 28.95H22.9402V30.4799H24.4702V28.95Z" fill="#000001"/>
<path d="M24.4702 22.86H21.4202V24.38H24.4702V22.86Z" fill="#000001"/>
<path d="M24.4702 10.67H22.9402V15.24H24.4702V10.67Z" fill="#000001"/>
<path d="M22.9402 30.48H21.4202V32H22.9402V30.48Z" fill="#000001"/>
<path d="M22.9402 15.24H21.4202V16.76H22.9402V15.24Z" fill="#000001"/>
<path d="M22.9401 9.14001H19.9001V10.67H22.9401V9.14001Z" fill="#000001"/>
<path d="M21.4201 24.38H19.9001V25.91H21.4201V24.38Z" fill="#000001"/>
<path d="M21.4201 21.33H18.3701V22.86H21.4201V21.33Z" fill="#000001"/>
<path d="M21.4201 16.76H19.9001V18.29H21.4201V16.76Z" fill="#000001"/>
<path d="M19.9001 25.91H18.3701V27.43H19.9001V25.91Z" fill="#000001"/>
<path d="M19.9001 18.29H18.3701V19.81H19.9001V18.29Z" fill="#000001"/>
<path d="M19.9001 10.67H18.3701V12.19H19.9001V10.67Z" fill="#000001"/>
<path d="M18.3701 27.4301H16.8501V28.9501H18.3701V27.4301Z" fill="#000001"/>
<path d="M18.3701 19.8101H16.8501V21.3301H18.3701V19.8101Z" fill="#000001"/>
<path d="M18.3701 12.1899H16.8501V13.7099H18.3701V12.1899Z" fill="#000001"/>
<path d="M16.8502 21.33H15.3302V22.86H16.8502V21.33Z" fill="#000001"/>
<path d="M16.8502 13.71H15.3302V15.24H16.8502V13.71Z" fill="#000001"/>
<path d="M15.3302 22.86H13.8002V24.38H15.3302V22.86Z" fill="#000001"/>
<path d="M15.3302 15.24H13.8002V16.76H15.3302V15.24Z" fill="#000001"/>
<path d="M13.8002 16.76H12.2802V18.29H13.8002V16.76Z" fill="#000001"/>
<path d="M13.8002 12.1899H12.2802V15.2399H13.8002V12.1899Z" fill="#000001"/>
<path d="M12.2801 18.29H10.7501V19.81H12.2801V18.29Z" fill="#000001"/>
<path d="M10.7501 0V1.52H9.2301V4.57H10.7501V6.1H12.2801V7.62H13.8001V9.14H15.3301V7.62H16.8501V6.1H18.3701V4.57H19.9001V1.52H18.3701V0H15.3301V1.52H13.8001V0H10.7501Z" fill="#000001"/>
<path d="M12.2802 10.67H7.71021V12.19H12.2802V10.67Z" fill="#000001"/>
<path d="M9.23021 16.76H7.71021V22.86H9.23021V21.33H10.7502V19.81H9.23021V16.76Z" fill="#000001"/>
<path d="M7.71018 22.86H6.18018V24.38H7.71018V22.86Z" fill="#000001"/>
<path d="M7.71018 12.1899H6.18018V16.7599H7.71018V12.1899Z" fill="#000001"/>
<path d="M6.18016 24.38H4.66016V32H6.18016V24.38Z" fill="#000001"/>
</svg>
