<svg width="33" height="32" viewBox="0 0 33 32" fill="none" xmlns="http://www.w3.org/2000/svg">
<g clip-path="url(#clip0_1128_19893)">
<path d="M32.8501 3.04999H31.3201V28.95H32.8501V3.04999Z" fill="#000001"/>
<path d="M31.3201 28.95H29.8001V30.48H31.3201V28.95Z" fill="#000001"/>
<path d="M31.3201 1.51999H29.8001V3.04999H31.3201V1.51999Z" fill="#000001"/>
<path d="M29.8001 30.48H3.89008V32H29.8001V30.48Z" fill="#000001"/>
<path d="M28.2701 4.56999H26.7501V3.04999H6.94008V4.56999H5.42008V6.08999H3.89008V25.9H5.42008V27.43H6.94008V28.95H26.7501V27.43H28.2701V25.9H29.8001V6.08999H28.2701V4.56999ZM26.7501 24.38H25.2301V25.9H8.46008V24.38H6.94008V7.61999H8.46008V6.08999H25.2301V7.61999H26.7501V24.38Z" fill="#000001"/>
<path d="M25.2301 7.62H22.1801V10.67H25.2301V7.62Z" fill="#000001"/>
<path d="M22.1801 12.19H20.6601V10.67H13.0401V12.19H11.5101V13.71H9.99011V21.33H11.5101V22.86H13.0401V24.38H20.6601V22.86H22.1801V21.33H23.7001V13.71H22.1801V12.19ZM20.6601 19.81H19.1301V21.33H14.5601V19.81H13.0401V15.24H14.5601V13.71H19.1301V15.24H20.6601V19.81Z" fill="#000001"/>
<path d="M29.8001 0H3.89008V1.52H29.8001V0Z" fill="#000001"/>
<path d="M3.89012 28.95H2.37012V30.48H3.89012V28.95Z" fill="#000001"/>
<path d="M3.89012 1.51999H2.37012V3.04999H3.89012V1.51999Z" fill="#000001"/>
<path d="M2.3701 3.04999H0.850098V28.95H2.3701V3.04999Z" fill="#000001"/>
</g>
<defs>
<clipPath id="clip0_1128_19893">
<rect width="32" height="32" fill="white" transform="translate(0.850098)"/>
</clipPath>
</defs>
</svg>
