<svg width="33" height="32" viewBox="0 0 33 32" fill="none" xmlns="http://www.w3.org/2000/svg">
<g clip-path="url(#clip0_1135_3070)">
<path d="M31.32 15.2299H29.8V16.7599H31.32V28.9499H32.85V12.1899H31.32V15.2299Z" fill="#000001"/>
<path d="M31.32 28.95H29.8V30.4699H31.32V28.95Z" fill="#000001"/>
<path d="M31.32 10.66H29.8V12.19H31.32V10.66Z" fill="#000001"/>
<path d="M28.2801 28.95H26.7501V30.4699H6.94014V28.95H5.42014V30.4699H3.89014V32H29.8001V30.4699H28.2801V28.95Z" fill="#000001"/>
<path d="M26.7501 27.42H25.2301V28.95H26.7501V27.42Z" fill="#000001"/>
<path d="M25.2301 25.9H23.7001V27.42H25.2301V25.9Z" fill="#000001"/>
<path d="M26.7501 18.28H23.7001V19.81H26.7501V18.28Z" fill="#000001"/>
<path d="M23.7001 24.38H22.1801V25.9H23.7001V24.38Z" fill="#000001"/>
<path d="M22.1802 22.85H20.6602V24.38H22.1802V22.85Z" fill="#000001"/>
<path d="M23.7002 19.8101H20.6602V21.3301H23.7002V19.8101Z" fill="#000001"/>
<path d="M22.1802 1.52002H20.6602V3.04002H22.1802V1.52002Z" fill="#000001"/>
<path d="M20.6601 10.66H17.6101V12.19H16.0901V10.66H13.0401V12.19H11.5101V15.23H13.0401V16.76H14.5601V18.28H16.0901V19.81H17.6101V18.28H19.1301V16.76H20.6601V15.23H22.1801V12.19H20.6601V10.66Z" fill="#000001"/>
<path d="M20.66 21.33H13.04V22.85H20.66V21.33Z" fill="#000001"/>
<path d="M20.66 0H13.04V1.52H20.66V0Z" fill="#000001"/>
<path d="M13.0401 22.85H11.5101V24.38H13.0401V22.85Z" fill="#000001"/>
<path d="M13.0401 19.8101H9.99011V21.3301H13.0401V19.8101Z" fill="#000001"/>
<path d="M13.0401 1.52002H11.5101V3.04002H13.0401V1.52002Z" fill="#000001"/>
<path d="M11.5101 24.38H9.99011V25.9H11.5101V24.38Z" fill="#000001"/>
<path d="M9.99009 25.9H8.47009V27.42H9.99009V25.9Z" fill="#000001"/>
<path d="M9.99006 18.28H6.94006V19.81H9.99006V18.28Z" fill="#000001"/>
<path d="M8.47006 27.42H6.94006V28.95H8.47006V27.42Z" fill="#000001"/>
<path d="M5.42014 16.76H3.89014V18.28H6.94014V6.09004H26.7501V18.28H29.8001V16.76H28.2801V10.66H29.8001V9.14004H28.2801V4.57004H23.7001V3.04004H22.1801V4.57004H11.5101V3.04004H9.99014V4.57004H5.42014V9.14004H3.89014V10.66H5.42014V16.76Z" fill="#000001"/>
<path d="M3.89012 28.95H2.37012V30.4699H3.89012V28.95Z" fill="#000001"/>
<path d="M3.89012 10.66H2.37012V12.19H3.89012V10.66Z" fill="#000001"/>
<path d="M2.3701 16.7599H3.8901V15.2299H2.3701V12.1899H0.850098V28.9499H2.3701V16.7599Z" fill="#000001"/>
</g>
<defs>
<clipPath id="clip0_1135_3070">
<rect width="32" height="32" fill="white" transform="translate(0.850098)"/>
</clipPath>
</defs>
</svg>
