<svg width="120" height="17" viewBox="0 0 120 17" fill="none" xmlns="http://www.w3.org/2000/svg">
<path d="M0.56 0.259999H2.04V15.08H9.44V16.56H0.56V0.259999ZM14.26 0.259999H15.72V16.56H14.26V0.259999ZM20.56 0.259999H29.44V1.7H22.04V7.66H28.2V9.12H22.04V16.56H20.56V0.259999ZM30.56 0.259999H39.44V1.7H32.04V7.66H38.2V9.12H32.04V15.08H39.44V16.56H30.56V0.259999ZM50.56 0.259999H56.98V1.48H58.2V2.72H59.44V6.64H58.2V7.88H56.98V8.9H58.2V12.62H59.44V16.56H58V12.82H56.76V9.12H52.04V16.56H50.56V0.259999ZM56.76 7.66V6.44H58V2.94H56.76V1.7H52.04V7.66H56.76ZM60.56 0.259999H69.44V1.7H62.04V7.66H68.2V9.12H62.04V15.08H69.44V16.56H60.56V0.259999ZM71.82 14.06H70.56V2.72H71.82V1.48H73.06V0.259999H76.98V1.48H78.2V2.72H79.44V5.42H78V2.94H76.76V1.7H73.26V2.94H72.04V13.86H73.26V15.08H76.76V13.86H78V10.14H79.44V14.06H78.2V15.3H76.98V16.56H73.06V15.3H71.82V14.06ZM84.26 0.259999H85.72V16.56H84.26V0.259999ZM90.56 0.259999H96.98V1.48H98.2V2.72H99.44V7.88H98.2V9.12H96.98V10.36H92.04V16.56H90.56V0.259999ZM96.76 8.9V7.66H98V2.94H96.76V1.7H92.04V8.9H96.76ZM100.56 0.259999H109.44V1.7H102.04V7.66H108.2V9.12H102.04V15.08H109.44V16.56H100.56V0.259999ZM111.82 14.06H110.56V11.38H112.04V13.86H113.26V15.08H116.76V13.86H118V10.36H116.76V9.12H113.06V7.88H111.82V6.64H110.56V2.72H111.82V1.48H113.06V0.259999H116.98V1.48H118.2V2.72H119.44V5.42H118V2.94H116.76V1.7H113.26V2.94H112.04V6.44H113.26V7.66H116.98V8.9H118.2V10.14H119.44V14.06H118.2V15.3H116.98V16.56H113.06V15.3H111.82V14.06Z" fill="black"/>
</svg>
