<svg width="33" height="32" viewBox="0 0 33 32" fill="none" xmlns="http://www.w3.org/2000/svg">
<path d="M29.0401 19.81H27.5101V24.38H29.0401V19.81Z" fill="#000001"/>
<path d="M27.5101 18.28H25.9901V19.81H27.5101V18.28Z" fill="#000001"/>
<path d="M27.5102 24.38H24.4702V25.9H27.5102V24.38Z" fill="#000001"/>
<path d="M25.9902 13.71H24.4702V18.28H25.9902V13.71Z" fill="#000001"/>
<path d="M24.4702 19.81H22.9402V21.33H24.4702V19.81Z" fill="#000001"/>
<path d="M24.4702 9.14001H22.9402V13.71H24.4702V9.14001Z" fill="#000001"/>
<path d="M18.3701 25.9V24.38H19.8901V22.85H18.3701V18.28H15.3201V22.85H12.2801V24.38H15.3201V25.9H9.2301V27.43H15.3201V32H18.3701V27.43H24.4701V25.9H18.3701Z" fill="#000001"/>
<path d="M22.9402 18.28H21.4202V19.81H22.9402V18.28Z" fill="#000001"/>
<path d="M22.9402 4.57001H21.4202V9.14001H22.9402V4.57001Z" fill="#000001"/>
<path d="M21.4201 21.33H19.8901V22.85H21.4201V21.33Z" fill="#000001"/>
<path d="M21.4201 12.19H18.3701V13.71H21.4201V12.19Z" fill="#000001"/>
<path d="M21.4201 3.04999H19.8901V4.56999H21.4201V3.04999Z" fill="#000001"/>
<path d="M19.8901 1.52002H18.3701V3.05002H19.8901V1.52002Z" fill="#000001"/>
<path d="M18.3701 10.66H16.8501V12.19H18.3701V10.66Z" fill="#000001"/>
<path d="M18.3701 6.09003H16.8501V7.62003H18.3701V6.09003Z" fill="#000001"/>
<path d="M18.3702 0H15.3202V1.52H18.3702V0Z" fill="#000001"/>
<path d="M16.8502 7.62H13.8002V9.14H16.8502V7.62Z" fill="#000001"/>
<path d="M15.3202 13.71H13.8002V15.24H15.3202V13.71Z" fill="#000001"/>
<path d="M15.3202 1.52002H13.8002V3.05002H15.3202V1.52002Z" fill="#000001"/>
<path d="M13.8002 3.04999H12.2802V4.56999H13.8002V3.04999Z" fill="#000001"/>
<path d="M12.2801 21.33H10.7501V22.85H12.2801V21.33Z" fill="#000001"/>
<path d="M13.8001 15.24H10.7501V16.76H13.8001V15.24Z" fill="#000001"/>
<path d="M12.2801 4.57001H10.7501V9.14001H12.2801V4.57001Z" fill="#000001"/>
<path d="M10.7501 9.14001H9.2301V13.71H10.7501V9.14001Z" fill="#000001"/>
<path d="M9.23018 24.38H6.18018V25.9H9.23018V24.38Z" fill="#000001"/>
<path d="M9.2302 13.71H7.7002V18.28H9.2302V13.71Z" fill="#000001"/>
<path d="M7.70018 18.28H6.18018V19.81H7.70018V18.28Z" fill="#000001"/>
<path d="M6.18016 19.81H4.66016V24.38H6.18016V19.81Z" fill="#000001"/>
</svg>
