<svg width="32" height="32" viewBox="0 0 32 32" fill="none" xmlns="http://www.w3.org/2000/svg">
<g clip-path="url(#clip0_1138_123280)">
<path d="M0.899103 16.88L1.94151 15.8376L10.2467 24.1428L9.20431 25.1852L0.899103 16.88Z" fill="#000001"/>
<path d="M10.2467 24.1428L11.2823 23.1072L14.3959 26.2208L13.3603 27.2564L10.2467 24.1428Z" fill="#000001"/>
<path d="M17.5095 27.2633L26.8571 17.9156L24.7791 15.8376L25.8181 14.7986L27.8962 16.8766L28.9352 15.8376L32.0488 18.9512L18.5519 32.4481L15.4383 29.3345L16.4739 28.2989L14.3959 26.2208L15.4315 25.1853L17.5095 27.2633ZM19.5875 29.3413L21.6621 27.2667L20.6197 26.2243L18.5417 28.3023L19.5875 29.3413Z" fill="#000001"/>
<path d="M9.20433 16.8732L8.16192 17.9156L4.01272 13.7664L1.94153 15.8376L0.905934 14.802L2.97713 12.7308L1.93472 11.6884L2.97713 10.646L9.20433 16.8732Z" fill="#000001"/>
<path d="M12.3179 13.7596L11.2823 14.7952L5.05514 8.56801L2.97713 10.646L1.94153 9.61042L4.01954 7.53241L2.97713 6.49L4.01273 5.45441L12.3179 13.7596Z" fill="#000001"/>
<path d="M15.4383 16.88L16.4739 15.8444L18.5451 17.9156L17.5095 18.9512L15.4383 16.88Z" fill="#000001"/>
<path d="M2.97712 4.41882L5.05513 2.34081L6.09073 3.37641L4.01272 5.45442L2.97712 4.41882Z" fill="#000001"/>
<path d="M15.4315 14.802L16.4739 13.7596L17.5163 14.802L16.4739 15.8444L15.4315 14.802Z" fill="#000001"/>
<path d="M15.4315 10.646L14.3959 11.6816L6.09073 3.3764L9.20433 0.262802L10.2467 1.30521L8.16873 3.38322L15.4315 10.646Z" fill="#000001"/>
<path d="M15.4384 12.724L18.552 9.61043L19.5876 10.646L16.474 13.7596L15.4384 12.724Z" fill="#000001"/>
<path d="M23.7367 12.724L24.7791 11.6816L26.8571 13.7596L25.8147 14.802L23.7367 12.724Z" fill="#000001"/>
<path d="M18.5519 9.61043L10.2467 1.30522L11.2823 0.26962L18.5451 7.53242L19.5875 6.49001L20.6299 7.53242L18.5519 9.61043Z" fill="#000001"/>
<path d="M23.7435 10.646L24.7791 9.61043L25.8147 10.646L24.7791 11.6816L23.7435 10.646Z" fill="#000001"/>
<path d="M18.5519 5.45441L19.5875 4.41882L20.6231 5.45441L19.5875 6.49001L18.5519 5.45441Z" fill="#000001"/>
<path d="M23.7435 8.57483L24.7791 7.53923L25.8147 8.57483L24.7791 9.61042L23.7435 8.57483Z" fill="#000001"/>
<path d="M18.552 3.38321L20.63 1.30521L21.6656 2.3408L19.5875 4.41881L18.552 3.38321Z" fill="#000001"/>
<path d="M23.7367 6.49682L24.7791 5.45441L25.8216 6.49682L24.7791 7.53923L23.7367 6.49682Z" fill="#000001"/>
<path d="M21.6655 2.3408L22.7011 1.30521L25.8147 4.41881L24.7791 5.45441L21.6655 2.3408Z" fill="#000001"/>
</g>
<defs>
<clipPath id="clip0_1138_123280">
<rect width="32" height="32" fill="white" transform="matrix(-4.37114e-08 1 1 4.37114e-08 0 0)"/>
</clipPath>
</defs>
</svg>
